<svg width="290" height="118" viewBox="0 0 290 118" fill="none" xmlns="http://www.w3.org/2000/svg">
<path fill-rule="evenodd" clip-rule="evenodd" d="M119.68 58.0486L113.39 50.4005V60.7998H110.681V47.4543H113.371C114.396 47.4543 114.841 47.9808 115.248 48.4885L120.744 55.2975L126.239 48.4885C126.645 47.9808 127.09 47.4543 128.116 47.4543H130.806V60.7998H128.097V50.4005L121.808 58.0486H119.68ZM155.38 50.1079H144.892C142.299 50.1079 141.525 51.1027 141.332 52.8784H155.148V55.3757H141.332C141.525 57.1514 142.299 58.1268 144.892 58.1268H155.38V60.7998H144.892C140.152 60.7998 138.507 58.517 138.507 54.1271C138.507 49.7371 140.152 47.4543 144.892 47.4543H155.38V50.1079ZM166.062 50.2836V60.7998H163.294V47.4543H165.249C168.809 47.4543 169.777 48.6054 173.125 53.2686C176.279 57.6585 176.511 57.9711 177.943 57.9711H177.962V47.4543H180.729V60.7998H178.775C175.505 60.7998 174.518 59.7462 170.899 54.9661C167.513 50.4981 167.416 50.2836 166.081 50.2836H166.062ZM189.03 60.7998V47.4543H199.905C204.646 47.4543 206.271 49.7371 206.271 54.1271C206.271 58.517 204.646 60.7998 199.905 60.7998H189.03ZM203.446 54.1271C203.446 51.571 203.059 50.1661 199.905 50.1661H191.797V58.068H199.905C203.059 58.068 203.446 56.6831 203.446 54.1271ZM230.247 50.1079H219.758C217.165 50.1079 216.392 51.1027 216.198 52.8784H230.014V55.3757H216.198C216.392 57.1514 217.165 58.1268 219.758 58.1268H230.247V60.7998H219.758C215.017 60.7998 213.373 58.517 213.373 54.1271C213.373 49.7371 215.017 47.4543 219.758 47.4543H230.247V50.1079ZM238.025 47.4543H240.792V55.2781C240.792 57.4634 241.624 58.068 244.411 58.068H253.235V60.7998H244.411C240.037 60.7998 238.025 59.2779 238.025 55.2781V47.4543Z" fill="#2E3F50"/>
<path fill-rule="evenodd" clip-rule="evenodd" d="M77.024 52.7771L76.0821 51.825L76.0095 51.7517L75.5873 51.325L75.5868 51.3245C74.2985 50.0225 72.6044 49.372 70.9145 49.372C69.3366 49.372 67.6876 49.9798 66.7471 50.8284L66.7466 50.8289L71.4088 46.1576L71.4098 46.1572C72.6976 44.8551 74.3917 44.2051 76.0821 44.2051C77.7719 44.2051 79.4661 44.8551 80.7543 46.1572L80.7548 46.1576L89.0359 54.5272C89.8333 55.6724 90.2324 57.0143 90.2324 58.3517C90.2324 60.0519 89.5878 61.7578 88.3 63.0603V63.0744L87.7563 63.624L77.024 52.7771Z" fill="url(#paint0_linear)"/>
<path fill-rule="evenodd" clip-rule="evenodd" d="M83.0467 68.4041L88.3002 63.0746V63.0605C89.588 61.7584 90.2326 60.052 90.2326 58.3519C90.2326 57.0144 89.8335 55.6726 89.0361 54.5269L93.364 58.9014C94.6527 60.2035 95.2964 61.9162 95.2964 63.6246C95.2964 64.8009 94.9822 66.2753 93.6733 67.5982L92.1271 69.1609C90.9229 70.1396 89.4545 70.629 87.989 70.629C86.2986 70.629 84.6045 69.9785 83.3162 68.6769L83.0467 68.4041Z" fill="url(#paint1_linear)"/>
<path fill-rule="evenodd" clip-rule="evenodd" d="M81.8789 67.2238L83.3161 68.6768C84.6043 69.9783 86.2985 70.6289 87.9888 70.6289C89.4543 70.6289 90.9227 70.1395 92.127 69.1608L87.4941 73.8432L87.4936 73.8437C86.2053 75.1457 84.5116 75.7962 82.8208 75.7962C81.131 75.7962 79.4368 75.1457 78.149 73.8437L78.1486 73.8432L56.4102 51.777L56.3521 51.7183L56.7988 51.2673L56.7993 51.2663C58.0876 49.9643 59.7813 49.3142 61.4716 49.3142C62.9376 49.3142 64.406 49.8031 65.6102 50.7823L81.8789 67.2238Z" fill="url(#paint2_linear)"/>
<path fill-rule="evenodd" clip-rule="evenodd" d="M55.3774 52.7771L56.3193 51.825L56.3918 51.7517L56.8141 51.325L56.8145 51.3245C58.1028 50.0225 59.797 49.372 61.4868 49.372C63.0647 49.372 64.7137 49.9798 65.6543 50.8284L65.6547 50.8289L60.9925 46.1576L60.9916 46.1572C59.7038 44.8551 58.0096 44.2051 56.3193 44.2051C54.6295 44.2051 52.9353 44.8551 51.647 46.1572L51.6466 46.1576L43.3655 54.5272C42.5681 55.6724 42.1689 57.0143 42.1689 58.3517C42.1689 60.0519 42.8136 61.7578 44.1014 63.0603V63.0744L44.6451 63.624L55.3774 52.7771Z" fill="url(#paint3_linear)"/>
<path fill-rule="evenodd" clip-rule="evenodd" d="M49.3546 68.4041L44.1011 63.0746V63.0605C42.8134 61.7584 42.1687 60.052 42.1687 58.3519C42.1687 57.0144 42.5679 55.6726 43.3653 54.5269L39.0374 58.9014C37.7486 60.2035 37.105 61.9162 37.105 63.6246C37.105 64.8009 37.4191 66.2753 38.7281 67.5982L40.2743 69.1609C41.4785 70.1396 42.9469 70.629 44.4124 70.629C46.1027 70.629 47.7969 69.9785 49.0852 68.6769L49.3546 68.4041Z" fill="url(#paint4_linear)"/>
<path fill-rule="evenodd" clip-rule="evenodd" d="M50.5225 67.2238L49.0853 68.6768C47.797 69.9783 46.1029 70.6289 44.4126 70.6289C42.947 70.6289 41.4786 70.1395 40.2744 69.1608L44.9073 73.8432L44.9078 73.8437C46.1961 75.1457 47.8897 75.7962 49.5805 75.7962C51.2704 75.7962 52.9645 75.1457 54.2523 73.8437L54.2528 73.8432L75.9911 51.777L76.0493 51.7183L75.6025 51.2673L75.6021 51.2663C74.3138 49.9643 72.6201 49.3142 70.9298 49.3142C69.4638 49.3142 67.9954 49.8031 66.7912 50.7823L50.5225 67.2238Z" fill="url(#paint5_linear)"/>
<path d="M115.059 73.4054H113.537V67.4705H109.919V66.0911H118.676V67.4705H115.059V73.4054ZM122.904 73.4054V66.0911H129.224C131.012 66.0911 132.118 66.9038 132.118 68.3688C132.118 69.3953 131.576 70.0263 130.629 70.3043C131.555 70.6037 131.959 71.2025 131.959 71.9618V73.4054H130.384V71.9297C130.384 71.5233 130.161 70.9994 129.192 70.9994H124.426V73.4054H122.904ZM124.426 69.6413H129.341C130.278 69.6413 130.565 69.0211 130.565 68.5399C130.565 68.0587 130.278 67.4384 129.341 67.4384H124.426V69.6413ZM136.75 66.0911H138.272V73.4054H136.75V66.0911ZM150.012 67.5347L153.002 73.4054H151.363L150.437 71.5982H145.075L144.149 73.4054H142.521L145.5 67.5347C145.958 66.6257 146.511 65.9841 147.756 65.9841C149.001 65.9841 149.544 66.6257 150.012 67.5347ZM149.735 70.2401L148.511 67.8448C148.352 67.5347 148.15 67.3422 147.756 67.3422C147.362 67.3422 147.16 67.5347 147.001 67.8448L145.766 70.2401H149.735ZM156.761 66.0911H158.283V70.3791C158.283 71.5768 158.74 71.9083 160.272 71.9083H165.124V73.4054H160.272C157.868 73.4054 156.761 72.5713 156.761 70.3791V66.0911ZM169.075 72.0366H175.545C176.438 72.0366 176.726 71.7586 176.726 71.3522C176.726 70.8603 176.289 70.6144 175.247 70.5289L171.725 70.2508C170.086 70.1225 169.107 69.5344 169.107 68.187C169.107 66.6364 170.405 66.0911 171.906 66.0911H177.822V67.4598H171.767C171.054 67.4598 170.65 67.6523 170.65 68.1442C170.65 68.5506 170.927 68.7644 172.119 68.8607L175.47 69.128C177.183 69.267 178.29 69.8124 178.29 71.2881C178.29 72.5285 177.502 73.4054 175.449 73.4054H169.075V72.0366Z" fill="#2E3F50"/>
<defs>
<linearGradient id="paint0_linear" x1="78.4895" y1="50.5532" x2="88.0242" y2="60.1937" gradientUnits="userSpaceOnUse">
<stop stop-color="#62ACFF"/>
<stop offset="1" stop-color="#5668AC"/>
</linearGradient>
<linearGradient id="paint1_linear" x1="89.6833" y1="65.8566" x2="86.3448" y2="69.3082" gradientUnits="userSpaceOnUse">
<stop stop-color="#62ACFF"/>
<stop offset="1" stop-color="#5668AC"/>
</linearGradient>
<linearGradient id="paint2_linear" x1="65.7233" y1="53.8107" x2="74.9376" y2="62.6902" gradientUnits="userSpaceOnUse">
<stop stop-color="#5668AC"/>
<stop offset="1" stop-color="#62ACFF"/>
</linearGradient>
<linearGradient id="paint3_linear" x1="53.9118" y1="50.5532" x2="44.3772" y2="60.1937" gradientUnits="userSpaceOnUse">
<stop stop-color="#62ACFF"/>
<stop offset="1" stop-color="#5668AC"/>
</linearGradient>
<linearGradient id="paint4_linear" x1="42.7181" y1="65.8566" x2="46.0566" y2="69.3082" gradientUnits="userSpaceOnUse">
<stop stop-color="#62ACFF"/>
<stop offset="1" stop-color="#5668AC"/>
</linearGradient>
<linearGradient id="paint5_linear" x1="66.6781" y1="53.8107" x2="62.8464" y2="57.8409" gradientUnits="userSpaceOnUse">
<stop stop-color="#5668AC"/>
<stop offset="1" stop-color="#62ACFF"/>
</linearGradient>
</defs>
</svg>
