<svg width="256" height="58" viewBox="0 0 256 58" fill="none" xmlns="http://www.w3.org/2000/svg">
<path fill-rule="evenodd" clip-rule="evenodd" d="M102.28 29.0486L96.0151 21.4005V31.7998H93.3164V18.4543H95.996C97.017 18.4543 97.4605 18.9808 97.8651 19.4885L103.34 26.2975L108.814 19.4885C109.218 18.9808 109.662 18.4543 110.683 18.4543H113.363V31.7998H110.664V21.4005L104.4 29.0486H102.28ZM137.842 21.1079H127.395C124.811 21.1079 124.041 22.1027 123.848 23.8784H137.611V26.3757H123.848C124.041 28.1514 124.811 29.1268 127.395 29.1268H137.842V31.7998H127.395C122.672 31.7998 121.034 29.517 121.034 25.1271C121.034 20.7371 122.672 18.4543 127.395 18.4543H137.842V21.1079ZM148.481 21.2836V31.7998H145.725V18.4543H147.672C151.218 18.4543 152.182 19.6054 155.517 24.2686C158.659 28.6585 158.89 28.9711 160.317 28.9711H160.336V18.4543H163.092V31.7998H161.145C157.888 31.7998 156.905 30.7462 153.3 25.9661C149.927 21.4981 149.831 21.2836 148.501 21.2836H148.481ZM171.36 31.7998V18.4543H182.193C186.916 18.4543 188.535 20.7371 188.535 25.1271C188.535 29.517 186.916 31.7998 182.193 31.7998H171.36ZM185.72 25.1271C185.72 22.571 185.335 21.1661 182.193 21.1661H174.117V29.068H182.193C185.335 29.068 185.72 27.6831 185.72 25.1271ZM212.417 21.1079H201.969C199.386 21.1079 198.615 22.1027 198.423 23.8784H212.185V26.3757H198.423C198.615 28.1514 199.386 29.1268 201.969 29.1268H212.417V31.7998H201.969C197.247 31.7998 195.609 29.517 195.609 25.1271C195.609 20.7371 197.247 18.4543 201.969 18.4543H212.417V21.1079ZM220.164 18.4543H222.921V26.2781C222.921 28.4634 223.749 29.068 226.525 29.068H235.315V31.7998H226.525C222.169 31.7998 220.164 30.2779 220.164 26.2781V18.4543Z" fill="#2E3F50"/>
<path fill-rule="evenodd" clip-rule="evenodd" d="M59.7907 23.7771L58.8524 22.825L58.7802 22.7517L58.3596 22.325L58.3591 22.3245C57.0759 21.0225 55.3883 20.372 53.705 20.372C52.1333 20.372 50.4907 20.9798 49.5538 21.8284L49.5533 21.8289L54.1974 17.1576L54.1984 17.1572C55.4811 15.8551 57.1687 15.2051 58.8524 15.2051C60.5357 15.2051 62.2233 15.8551 63.5065 17.1572L63.507 17.1576L71.7559 25.5272C72.5501 26.6724 72.9478 28.0143 72.9478 29.3517C72.9478 31.0519 72.3056 32.7578 71.0229 34.0603V34.0744L70.4812 34.624L59.7907 23.7771Z" fill="url(#paint0_linear)"/>
<path fill-rule="evenodd" clip-rule="evenodd" d="M65.7897 39.4041L71.0228 34.0746V34.0605C72.3055 32.7584 72.9476 31.052 72.9476 29.3519C72.9476 28.0144 72.55 26.6726 71.7558 25.5269L76.0668 29.9014C77.3505 31.2035 77.9917 32.9162 77.9917 34.6246C77.9917 35.8009 77.6788 37.2753 76.3749 38.5982L74.8347 40.1609C73.6352 41.1396 72.1725 41.629 70.7127 41.629C69.029 41.629 67.3414 40.9785 66.0581 39.6769L65.7897 39.4041Z" fill="url(#paint1_linear)"/>
<path fill-rule="evenodd" clip-rule="evenodd" d="M64.6268 38.2238L66.0583 39.6768C67.3416 40.9783 69.0292 41.6289 70.7129 41.6289C72.1727 41.6289 73.6354 41.1395 74.835 40.1608L70.2201 44.8432L70.2196 44.8437C68.9364 46.1457 67.2493 46.7962 65.565 46.7962C63.8818 46.7962 62.1942 46.1457 60.9114 44.8437L60.9109 44.8432L39.2572 22.777L39.1993 22.7183L39.6443 22.2673L39.6448 22.2663C40.928 20.9643 42.6151 20.3142 44.2989 20.3142C45.7592 20.3142 47.2219 20.8031 48.4214 21.7823L64.6268 38.2238Z" fill="url(#paint2_linear)"/>
<path fill-rule="evenodd" clip-rule="evenodd" d="M38.2278 23.7771L39.1661 22.825L39.2383 22.7517L39.6589 22.325L39.6594 22.3245C40.9427 21.0225 42.6302 20.372 44.3135 20.372C45.8853 20.372 47.5279 20.9798 48.4647 21.8284L48.4652 21.8289L43.8212 17.1576L43.8202 17.1572C42.5374 15.8551 40.8498 15.2051 39.1661 15.2051C37.4828 15.2051 35.7953 15.8551 34.512 17.1572L34.5115 17.1576L26.2627 25.5272C25.4684 26.6724 25.0708 28.0143 25.0708 29.3517C25.0708 31.0519 25.7129 32.7578 26.9957 34.0603V34.0744L27.5373 34.624L38.2278 23.7771Z" fill="url(#paint3_linear)"/>
<path fill-rule="evenodd" clip-rule="evenodd" d="M32.2288 39.4041L26.9958 34.0746V34.0605C25.713 32.7584 25.0709 31.052 25.0709 29.3519C25.0709 28.0144 25.4685 26.6726 26.2628 25.5269L21.9517 29.9014C20.668 31.2035 20.0269 32.9162 20.0269 34.6246C20.0269 35.8009 20.3398 37.2753 21.6436 38.5982L23.1838 40.1609C24.3833 41.1396 25.846 41.629 27.3059 41.629C28.9896 41.629 30.6772 40.9785 31.9604 39.6769L32.2288 39.4041Z" fill="url(#paint4_linear)"/>
<path fill-rule="evenodd" clip-rule="evenodd" d="M33.3918 38.2238L31.9602 39.6768C30.6769 40.9783 28.9894 41.6289 27.3056 41.6289C25.8458 41.6289 24.3831 41.1395 23.1836 40.1608L27.7985 44.8432L27.7989 44.8437C29.0822 46.1457 30.7693 46.7962 32.4535 46.7962C34.1368 46.7962 35.8243 46.1457 37.1071 44.8437L37.1076 44.8432L58.7613 22.777L58.8192 22.7183L58.3743 22.2673L58.3738 22.2663C57.0905 20.9643 55.4034 20.3142 53.7197 20.3142C52.2594 20.3142 50.7967 20.8031 49.5972 21.7823L33.3918 38.2238Z" fill="url(#paint5_linear)"/>
<path d="M97.6773 44.4054H96.1617V38.4705H92.5581V37.0911H101.281V38.4705H97.6773V44.4054ZM105.492 44.4054V37.0911H111.788C113.568 37.0911 114.671 37.9038 114.671 39.3688C114.671 40.3953 114.13 41.0263 113.187 41.3043C114.109 41.6037 114.512 42.2025 114.512 42.9618V44.4054H112.943V42.9297C112.943 42.5233 112.721 41.9994 111.756 41.9994H107.008V44.4054H105.492ZM107.008 40.6413H111.904C112.837 40.6413 113.123 40.0211 113.123 39.5399C113.123 39.0587 112.837 38.4384 111.904 38.4384H107.008V40.6413ZM119.285 37.0911H120.8V44.4054H119.285V37.0911ZM132.494 38.5347L135.473 44.4054H133.84L132.918 42.5982H127.577L126.654 44.4054H125.033L128 38.5347C128.456 37.6257 129.007 36.9841 130.247 36.9841C131.488 36.9841 132.028 37.6257 132.494 38.5347ZM132.219 41.2401L131 38.8448C130.841 38.5347 130.64 38.3422 130.247 38.3422C129.855 38.3422 129.654 38.5347 129.495 38.8448L128.265 41.2401H132.219ZM139.218 37.0911H140.733V41.3791C140.733 42.5768 141.189 42.9083 142.715 42.9083H147.548V44.4054H142.715C140.32 44.4054 139.218 43.5713 139.218 41.3791V37.0911ZM151.484 43.0366H157.928C158.818 43.0366 159.104 42.7586 159.104 42.3522C159.104 41.8603 158.67 41.6144 157.631 41.5289L154.123 41.2508C152.491 41.1225 151.516 40.5344 151.516 39.187C151.516 37.6364 152.809 37.0911 154.303 37.0911H160.196V38.4598H154.165C153.455 38.4598 153.053 38.6523 153.053 39.1442C153.053 39.5506 153.328 39.7644 154.515 39.8607L157.854 40.128C159.56 40.267 160.662 40.8124 160.662 42.2881C160.662 43.5285 159.878 44.4054 157.833 44.4054H151.484V43.0366Z" fill="#2E3F50"/>
<defs>
<linearGradient id="paint0_linear" x1="61.2505" y1="21.5532" x2="70.7855" y2="31.1566" gradientUnits="userSpaceOnUse">
<stop stop-color="#62ACFF"/>
<stop offset="1" stop-color="#5668AC"/>
</linearGradient>
<linearGradient id="paint1_linear" x1="72.4005" y1="36.8566" x2="69.0615" y2="40.2951" gradientUnits="userSpaceOnUse">
<stop stop-color="#62ACFF"/>
<stop offset="1" stop-color="#5668AC"/>
</linearGradient>
<linearGradient id="paint2_linear" x1="48.534" y1="24.8107" x2="57.747" y2="33.6544" gradientUnits="userSpaceOnUse">
<stop stop-color="#5668AC"/>
<stop offset="1" stop-color="#62ACFF"/>
</linearGradient>
<linearGradient id="paint3_linear" x1="36.768" y1="21.5532" x2="27.233" y2="31.1566" gradientUnits="userSpaceOnUse">
<stop stop-color="#62ACFF"/>
<stop offset="1" stop-color="#5668AC"/>
</linearGradient>
<linearGradient id="paint4_linear" x1="25.6181" y1="36.8566" x2="28.957" y2="40.2952" gradientUnits="userSpaceOnUse">
<stop stop-color="#62ACFF"/>
<stop offset="1" stop-color="#5668AC"/>
</linearGradient>
<linearGradient id="paint5_linear" x1="49.4845" y1="24.8107" x2="45.6521" y2="28.826" gradientUnits="userSpaceOnUse">
<stop stop-color="#5668AC"/>
<stop offset="1" stop-color="#62ACFF"/>
</linearGradient>
</defs>
</svg>
