<svg width="125" height="40" viewBox="0 0 125 40" fill="none" xmlns="http://www.w3.org/2000/svg">
<path fill-rule="evenodd" clip-rule="evenodd" d="M118.71 32.185C118.722 32.1963 118.734 32.2082 118.746 32.2206L118.746 32.2211C118.893 32.368 119.12 32.5961 119.351 32.7749C119.646 33.0026 120.164 33.3294 120.89 33.3594C120.964 33.3624 121.038 33.3624 121.112 33.3594C121.838 33.3294 122.356 33.0026 122.651 32.7749C122.882 32.5961 123.109 32.368 123.256 32.2211C123.268 32.2085 123.28 32.1964 123.292 32.185C123.303 32.1737 123.315 32.1616 123.328 32.149C123.475 32.0026 123.703 31.7752 123.881 31.5441C124.109 31.2498 124.436 30.7312 124.466 30.0056C124.469 29.9316 124.469 29.8574 124.466 29.7834C124.436 29.0578 124.109 28.5392 123.881 28.2449C123.703 28.0138 123.475 27.7864 123.328 27.64C123.315 27.6273 123.303 27.6153 123.292 27.6039L121.109 25.4214C121.098 25.4101 121.086 25.398 121.073 25.3853C120.927 25.2385 120.699 25.0104 120.468 24.8316C120.174 24.6039 119.655 24.2771 118.93 24.2471C118.856 24.2441 118.781 24.2441 118.707 24.2471C117.982 24.2771 117.463 24.6039 117.169 24.8316C116.938 25.0104 116.71 25.2385 116.564 25.3853C114.801 27.1536 113.034 28.9176 111.268 30.6832C110.902 31.0493 110.719 31.2324 110.493 31.2417C110.477 31.2424 110.461 31.2424 110.445 31.2417C110.218 31.2324 110.035 31.0493 109.669 30.6832C109.303 30.3171 109.12 30.134 109.111 29.9077C109.11 29.8917 109.11 29.8757 109.111 29.8597C109.12 29.6333 109.303 29.4503 109.669 29.0842L111.852 26.9016C112.218 26.5355 112.401 26.3525 112.627 26.3431C112.643 26.3425 112.659 26.3425 112.675 26.3431C112.835 26.3498 113.004 26.4514 113.167 26.5903C113.533 26.9015 113.716 27.0571 113.907 27.0494C114.098 27.0417 114.244 26.8957 114.536 26.6037L114.672 26.4675C114.991 26.1487 115.15 25.9893 115.146 25.7814C115.142 25.5735 114.989 25.4308 114.681 25.1454C114.557 25.03 114.429 24.9203 114.301 24.8208C114.006 24.5931 113.488 24.2663 112.762 24.2363C112.688 24.2332 112.614 24.2332 112.54 24.2363C111.814 24.2663 111.296 24.5931 111.002 24.8208C110.77 24.9996 110.543 25.2276 110.397 25.3745L110.396 25.3747C110.384 25.3873 110.372 25.3993 110.361 25.4106L108.178 27.5931C108.167 27.6045 108.155 27.6164 108.142 27.629L108.142 27.6292C107.995 27.7756 107.767 28.003 107.588 28.2341C107.361 28.5284 107.034 29.047 107.004 29.7726C107.001 29.8466 107.001 29.9208 107.004 29.9948C107.034 30.7204 107.361 31.2389 107.588 31.5333C107.767 31.7644 107.995 31.9918 108.142 32.1382C108.15 32.1461 108.158 32.1537 108.165 32.1611C108.169 32.1656 108.174 32.1699 108.178 32.1742C108.189 32.185 108.2 32.1963 108.212 32.2082L108.212 32.2085L108.214 32.2103C108.361 32.3572 108.588 32.5853 108.819 32.7641C109.113 32.9918 109.632 33.3186 110.358 33.3486C110.432 33.3516 110.506 33.3516 110.58 33.3486C111.305 33.3186 111.824 32.9918 112.118 32.7641C112.349 32.5853 112.577 32.3572 112.723 32.2103C114.22 30.709 115.72 29.2111 117.219 27.7119L118.019 26.9124L118.019 26.9124C118.385 26.5463 118.568 26.3633 118.794 26.3539C118.81 26.3533 118.826 26.3533 118.842 26.3539C119.069 26.3633 119.252 26.5464 119.618 26.9125L121.801 29.095C122.167 29.4611 122.35 29.6441 122.359 29.8705C122.36 29.8865 122.36 29.9025 122.359 29.9185C122.35 30.1449 122.167 30.3279 121.801 30.694C121.434 31.0601 121.251 31.2432 121.025 31.2526C121.009 31.2532 120.993 31.2532 120.977 31.2526C120.751 31.2432 120.568 31.0601 120.201 30.694C119.57 30.0627 118.939 29.4313 118.307 28.7999C117.981 28.4739 117.818 28.3109 117.616 28.3109C117.413 28.3109 117.25 28.4739 116.924 28.7999L116.787 28.9372C116.475 29.2493 116.319 29.4054 116.318 29.6061C116.316 29.8068 116.466 29.9605 116.766 30.268C117.401 30.9197 118.069 31.5435 118.71 32.185Z" fill="#AC7BFF"/>
<path d="M5.29011 20V12.8306H9.64484C12.8843 12.8306 14.6103 10.6798 14.6103 7.14826C14.6103 3.61668 12.8843 1.46587 9.64484 1.46587H1.97096V20H5.29011ZM5.29011 4.36017H9.29964C10.4414 4.36017 11.1318 4.94434 11.1318 6.32511V7.9714C11.1318 9.35217 10.4414 9.93634 9.29964 9.93634H5.29011V4.36017ZM28.1026 20V17.4243H26.8812V10.7064C26.8812 7.49345 25.1552 5.8206 21.7033 5.8206C19.287 5.8206 17.7469 6.88272 16.7379 8.47592L18.6231 10.1753C19.287 9.06008 20.1367 8.39626 21.4378 8.39626C23.0044 8.39626 23.6682 9.1663 23.6682 10.786V11.9809H21.5174C18.1452 11.9809 16.2599 13.3883 16.2599 16.2826C16.2599 18.8317 17.561 20.3186 20.0836 20.3186C21.9157 20.3186 23.2434 19.3096 23.5886 17.6368H23.9072C23.9869 19.23 24.7304 20 26.1642 20H28.1026ZM21.305 17.9554C20.1632 17.9554 19.4994 17.4509 19.4994 16.2826V15.6984C19.4994 14.5831 20.2163 13.9724 21.7299 13.9724H23.6682V15.8046C23.6682 17.1323 22.6061 17.9554 21.305 17.9554ZM36.7805 20V17.4243H34.497V8.71489H36.993V6.13923H34.497V2.36868H31.6027V4.81157C31.6027 5.71438 31.3371 6.13923 30.4078 6.13923H29.4519V8.71489H31.284V16.8933C31.284 19.0441 32.2399 20 34.4439 20H36.7805ZM41.0817 3.96187C42.4094 3.96187 42.9936 3.3246 42.9936 2.34213V1.81106C42.9936 0.828595 42.4094 0.191319 41.0817 0.191319C39.7541 0.191319 39.1699 0.828595 39.1699 1.81106V2.34213C39.1699 3.3246 39.7541 3.96187 41.0817 3.96187ZM39.4885 20H42.7015V6.13923H39.4885V20ZM51.4097 20.3186C53.826 20.3186 55.5785 19.2565 56.6141 17.6368L54.8616 15.8046C54.1181 17.026 53.1091 17.7164 51.5956 17.7164C49.8165 17.7164 48.7013 16.5746 48.7013 14.7425V13.8397H56.9062V13.0696C56.9062 8.10417 54.8085 5.8206 51.1176 5.8206C47.4267 5.8206 45.329 8.10417 45.329 13.0696C45.329 18.0085 47.7719 20.3186 51.4097 20.3186ZM51.1176 8.29004C52.7108 8.29004 53.5339 9.24596 53.5339 11.1578V11.8482H48.7013V11.1578C48.7013 9.24596 49.5244 8.29004 51.1176 8.29004ZM62.7979 20V10.7064C62.7979 9.32562 63.8335 8.52902 65.1346 8.52902C66.5153 8.52902 67.1526 9.43183 67.1526 11.2374V20H70.3656V10.6798C70.3656 7.57311 68.9582 5.8206 66.4888 5.8206C64.8425 5.8206 63.7273 6.69685 63.1696 8.44936H62.7979V6.13923H59.585V20H62.7979ZM79.8776 20V17.4243H77.594V8.71489H80.09V6.13923H77.594V2.36868H74.6997V4.81157C74.6997 5.71438 74.4342 6.13923 73.5048 6.13923H72.5489V8.71489H74.3811V16.8933C74.3811 19.0441 75.337 20 77.5409 20H79.8776Z" fill="#181C24"/>
<path d="M87.3918 20V17.4243H85.7986V0.350639H82.5856V16.9198C82.5856 19.0175 83.4884 20 85.7189 20H87.3918ZM94.9216 20.3186C97.338 20.3186 99.0905 19.2565 100.126 17.6368L98.3736 15.8046C97.6301 17.026 96.621 17.7164 95.1075 17.7164C93.3285 17.7164 92.2132 16.5746 92.2132 14.7425V13.8397H100.418V13.0696C100.418 8.10417 98.3205 5.8206 94.6296 5.8206C90.9387 5.8206 88.841 8.10417 88.841 13.0696C88.841 18.0085 91.2839 20.3186 94.9216 20.3186ZM94.6296 8.29004C96.2228 8.29004 97.0459 9.24596 97.0459 11.1578V11.8482H92.2132V11.1578C92.2132 9.24596 93.0364 8.29004 94.6296 8.29004ZM107.292 20.3186C110.558 20.3186 112.417 18.6458 112.417 15.778C112.417 13.521 111.249 12.3261 108.354 11.7951L107.027 11.5561C105.965 11.3702 105.487 10.9454 105.487 10.016C105.487 8.90077 106.124 8.34315 107.345 8.34315C108.593 8.34315 109.602 8.92732 110.319 9.80357L112.205 7.9183C111.036 6.53753 109.496 5.8206 107.345 5.8206C104.239 5.8206 102.46 7.25447 102.46 10.1488C102.46 12.5651 103.708 13.76 106.602 14.2911L107.903 14.53C108.965 14.7159 109.363 15.2204 109.363 16.0967C109.363 17.2119 108.647 17.7961 107.345 17.7961C105.912 17.7961 104.823 17.1588 103.947 15.9108L101.982 17.8226C103.283 19.4689 105.009 20.3186 107.292 20.3186ZM118.987 20.3186C122.253 20.3186 124.112 18.6458 124.112 15.778C124.112 13.521 122.944 12.3261 120.049 11.7951L118.722 11.5561C117.659 11.3702 117.182 10.9454 117.182 10.016C117.182 8.90077 117.819 8.34315 119.04 8.34315C120.288 8.34315 121.297 8.92732 122.014 9.80357L123.899 7.9183C122.731 6.53753 121.191 5.8206 119.04 5.8206C115.934 5.8206 114.154 7.25447 114.154 10.1488C114.154 12.5651 115.402 13.76 118.297 14.2911L119.598 14.53C120.66 14.7159 121.058 15.2204 121.058 16.0967C121.058 17.2119 120.341 17.7961 119.04 17.7961C117.606 17.7961 116.518 17.1588 115.641 15.9108L113.677 17.8226C114.978 19.4689 116.704 20.3186 118.987 20.3186Z" fill="#985CFF"/>
<path d="M2.97393 32.2554V30.463H4.06261C4.87248 30.463 5.30397 29.9253 5.30397 29.0424C5.30397 28.1595 4.87248 27.6218 4.06261 27.6218H2.14414V32.2554H2.97393ZM2.97393 28.3454H3.97631C4.26176 28.3454 4.43435 28.4915 4.43435 28.8366V29.2482C4.43435 29.5934 4.26176 29.7395 3.97631 29.7395H2.97393V28.3454ZM13.884 32.335C14.9926 32.335 15.7029 31.6446 15.7029 29.9386C15.7029 28.2326 14.9926 27.5422 13.884 27.5422C12.7754 27.5422 12.0651 28.2326 12.0651 29.9386C12.0651 31.6446 12.7754 32.335 13.884 32.335ZM13.884 31.6048C13.2866 31.6048 12.9414 31.2132 12.9414 30.5161V29.3611C12.9414 28.6641 13.2866 28.2724 13.884 28.2724C14.4815 28.2724 14.8267 28.6641 14.8267 29.3611V30.5161C14.8267 31.2132 14.4815 31.6048 13.884 31.6048ZM24.2554 32.2554L24.8396 29.4938L24.9724 28.4915H25.0653L25.1981 29.4938L25.769 32.2554H26.7249L27.7206 27.6218H26.924L26.4394 30.3103L26.3067 31.3658H26.2071L26.0743 30.3303L25.5101 27.6218H24.5674L24.0032 30.3303L23.8704 31.3658H23.7775L23.6447 30.3103L23.1535 27.6218H22.3303L23.2796 32.2554H24.2554ZM37.3716 32.2554V31.5318H35.4199V30.2572H37.1259V29.5536H35.4199V28.3454H37.3716V27.6218H34.5901V32.2554H37.3716ZM45.2542 30.4298H45.9844L46.7478 32.2554H47.644L46.8009 30.3635C47.3121 30.1975 47.5842 29.7262 47.5842 29.0292C47.5842 28.1463 47.1527 27.6218 46.3429 27.6218H44.4244V32.2554H45.2542V30.4298ZM45.2542 29.7395V28.3454H46.2566C46.542 28.3454 46.7146 28.4848 46.7146 28.8366V29.2482C46.7146 29.6001 46.542 29.7395 46.2566 29.7395H45.2542ZM57.4161 32.2554V31.5318H55.4645V30.2572H57.1705V29.5536H55.4645V28.3454H57.4161V27.6218H54.6347V32.2554H57.4161ZM64.4689 32.2554H66.0489C67.1575 32.2554 67.8213 31.5849 67.8213 29.9386C67.8213 28.2923 67.1575 27.6218 66.0489 27.6218H64.4689V32.2554ZM65.2987 31.5318V28.3454H66.0489C66.6131 28.3454 66.9384 28.6972 66.9384 29.3943V30.4829C66.9384 31.18 66.6131 31.5318 66.0489 31.5318H65.2987ZM82.4714 32.2554H84.6289C85.2794 32.2554 85.6976 31.6911 85.6976 30.9277C85.6976 30.3236 85.3193 29.8988 84.7749 29.8988V29.7992C85.2728 29.766 85.5383 29.4208 85.5383 28.8101C85.5383 28.0666 85.1666 27.6218 84.443 27.6218H82.4714V32.2554ZM83.3012 30.2506H84.3899C84.6621 30.2506 84.828 30.3834 84.828 30.7286V31.0538C84.828 31.399 84.6621 31.5318 84.3899 31.5318H83.3012V30.2506ZM83.3012 28.3454H84.2571C84.5227 28.3454 84.682 28.4649 84.682 28.7902V29.1022C84.682 29.4275 84.5227 29.5469 84.2571 29.5469H83.3012V28.3454ZM94.3578 32.2554V30.4829L95.7718 27.6218H94.8823L94.006 29.6133H93.9131L93.0169 27.6218H92.1074L93.528 30.4829V32.2554H94.3578Z" fill="#181C24"/>
</svg>
